<svg width="24" height="24" viewBox="0 0 24 24" fill="none" xmlns="http://www.w3.org/2000/svg">
<g clip-path="url(#clip0_218_278)">
<path d="M12 8.81005C10.2435 8.81005 8.81004 10.2435 8.81004 12C8.81004 13.7566 10.2435 15.19 12 15.19C13.7566 15.19 15.19 13.7566 15.19 12C15.19 10.2435 13.7566 8.81005 12 8.81005ZM21.5676 12C21.5676 10.6791 21.5796 9.37003 21.5054 8.05144C21.4312 6.51986 21.0818 5.16059 19.9619 4.04062C18.8395 2.91826 17.4826 2.57126 15.951 2.49708C14.63 2.42289 13.321 2.43485 12.0024 2.43485C10.6814 2.43485 9.37242 2.42289 8.05382 2.49708C6.52224 2.57126 5.16297 2.92065 4.043 4.04062C2.92064 5.16298 2.57364 6.51986 2.49946 8.05144C2.42527 9.37243 2.43724 10.6814 2.43724 12C2.43724 13.3186 2.42527 14.6301 2.49946 15.9486C2.57364 17.4802 2.92303 18.8395 4.043 19.9595C5.16536 21.0818 6.52224 21.4288 8.05382 21.503C9.37481 21.5772 10.6838 21.5652 12.0024 21.5652C13.3234 21.5652 14.6324 21.5772 15.951 21.503C17.4826 21.4288 18.8419 21.0794 19.9619 19.9595C21.0842 18.8371 21.4312 17.4802 21.5054 15.9486C21.582 14.6301 21.5676 13.321 21.5676 12ZM12 16.9083C9.28387 16.9083 7.0918 14.7162 7.0918 12C7.0918 9.28388 9.28387 7.09181 12 7.09181C14.7162 7.09181 16.9083 9.28388 16.9083 12C16.9083 14.7162 14.7162 16.9083 12 16.9083ZM17.1093 8.03708C16.4751 8.03708 15.963 7.52496 15.963 6.89079C15.963 6.25662 16.4751 5.7445 17.1093 5.7445C17.7435 5.7445 18.2556 6.25662 18.2556 6.89079C18.2558 7.04138 18.2262 7.19052 18.1687 7.32968C18.1112 7.46884 18.0267 7.59528 17.9203 7.70176C17.8138 7.80824 17.6873 7.89267 17.5482 7.95021C17.409 8.00775 17.2599 8.03727 17.1093 8.03708Z" fill="white"/>
</g>
<defs>
<clipPath id="clip0_218_278">
<rect width="19.2" height="19.2" fill="white" transform="translate(2.3999 2.40002)"/>
</clipPath>
</defs>
</svg>
