<svg width="24" height="24" viewBox="0 0 24 24" fill="none" xmlns="http://www.w3.org/2000/svg">
<g clip-path="url(#clip0_218_273)">
<path d="M21.3013 6.52138C20.6042 6.83024 19.8554 7.03894 19.0682 7.13327C19.8805 6.64725 20.4881 5.88232 20.7778 4.9812C20.0147 5.43448 19.1795 5.75354 18.3086 5.92451C17.7229 5.29914 16.9471 4.88464 16.1017 4.74535C15.2563 4.60607 14.3885 4.74979 13.6331 5.15421C12.8778 5.55863 12.2771 6.20112 11.9243 6.98193C11.5715 7.76274 11.4863 8.63818 11.6821 9.47233C10.1358 9.39469 8.6231 8.99279 7.2422 8.2927C5.8613 7.59262 4.64303 6.61 3.66647 5.40861C3.33256 5.98461 3.14056 6.65244 3.14056 7.36367C3.14019 8.00395 3.29786 8.63441 3.59959 9.19913C3.90132 9.76386 4.33777 10.2454 4.87023 10.601C4.25272 10.5813 3.64883 10.4145 3.10884 10.1143V10.1644C3.10877 11.0624 3.4194 11.9328 3.98802 12.6278C4.55663 13.3229 5.3482 13.7998 6.22842 13.9777C5.65558 14.1327 5.055 14.1555 4.47204 14.0444C4.72038 14.8171 5.20414 15.4928 5.85558 15.9769C6.50702 16.461 7.29353 16.7292 8.10501 16.7441C6.72748 17.8255 5.02624 18.4121 3.27496 18.4095C2.96474 18.4096 2.65478 18.3915 2.34668 18.3553C4.12433 19.4982 6.19364 20.1048 8.30703 20.1025C15.4611 20.1025 19.3721 14.1772 19.3721 9.03824C19.3721 8.87129 19.3679 8.70266 19.3604 8.53571C20.1211 7.98556 20.7778 7.30431 21.2996 6.52388L21.3013 6.52138Z" fill="white"/>
</g>
<defs>
<clipPath id="clip0_218_273">
<rect width="19.2" height="19.2" fill="white" transform="translate(2.3999 2.40002)"/>
</clipPath>
</defs>
</svg>
